<svg viewBox="0 0 64 64" xmlns="http://www.w3.org/2000/svg"><g data-name="Galaxy"><path d="M41.24 59a18.34 18.34 0 0 1-11.64-4.16 1 1 0 0 0-1.4.14 1 1 0 0 0 .13 1.41A20.35 20.35 0 0 0 41.24 61a1 1 0 1 0 0-2ZM19 57.45a18.35 18.35 0 0 1-5.38-13 18.1 18.1 0 0 1 .78-5.29 1 1 0 1 0-1.92-.58 20.38 20.38 0 0 0 5.12 20.28 1 1 0 0 0 1.4-1.41ZM23.67 46a18.36 18.36 0 0 1-.67-7.49 1 1 0 1 0-2-.23 20.55 20.55 0 0 0 .74 8.28 1 1 0 1 0 1.93-.56ZM49.85 38.57a18.37 18.37 0 0 1-9.91 1.61 1 1 0 1 0-.23 2 20.39 20.39 0 0 0 11-1.78 1 1 0 1 0-.85-1.81Z" fill="#f03355" fill-rule="evenodd" class="fill-cac7c1"></path><path d="M32 26.09h-.11a5.33 5.33 0 1 0 .11 0Zm4.31-.56A7.25 7.25 0 0 0 32 24.09h-.1a20.37 20.37 0 0 0-16.6 8.71 1 1 0 0 0 .25 1.39 1 1 0 0 0 1.39-.25 18.48 18.48 0 0 1 9.19-6.89 7.33 7.33 0 0 0-1.43 4.31 20.36 20.36 0 0 0 34.77 14.4 1 1 0 0 0-1.41-1.41 18.37 18.37 0 0 1-30.4-7.12A7.34 7.34 0 0 0 32 38.69a20.36 20.36 0 0 0 18.2-11.21 1 1 0 1 0-1.79-.9 18.42 18.42 0 0 1-10.54 9.15 7.33 7.33 0 0 0 1.43-4.31A20.37 20.37 0 0 0 4.53 17a1 1 0 1 0 1.41 1.4 18.38 18.38 0 0 1 30.4 7.13Z" fill="#f03355" fill-rule="evenodd" class="fill-cac7c1"></path><path d="M57.43 32a17.75 17.75 0 0 1-2.38 2.93 1 1 0 1 0 1.41 1.41 20.3 20.3 0 0 0 2.65-3.24 1 1 0 0 0-1.68-1.1ZM6.47 33.73a18.19 18.19 0 0 1 4.12-6.3 1 1 0 0 0 0-1.42 1 1 0 0 0-1.41 0A20.4 20.4 0 0 0 4.6 33a1 1 0 0 0 1.87.72ZM39.4 14.36a18.4 18.4 0 0 1 1.6 9.92 1 1 0 0 0 2 .23 20.43 20.43 0 0 0-1.78-11 1 1 0 1 0-1.81.85ZM15.79 23.78a18.42 18.42 0 0 1 6-1.65 1 1 0 1 0-.18-2A20.6 20.6 0 0 0 14.94 22a1 1 0 0 0 .85 1.82ZM45 5.34a18.3 18.3 0 0 1 5.38 13 18.07 18.07 0 0 1-.38 3.45 1 1 0 0 0 2 .37 21 21 0 0 0 .36-3.84 20.3 20.3 0 0 0-6-14.4 1 1 0 0 0-1.41 0A1 1 0 0 0 45 5.34ZM29.18 4.94a18.31 18.31 0 0 1 6.56 4.22 1 1 0 0 0 1.42 0 1 1 0 0 0 0-1.41 20.34 20.34 0 0 0-7.28-4.69 1 1 0 1 0-.7 1.88Z" fill="#f03355" fill-rule="evenodd" class="fill-cac7c1"></path><path d="M14.56 32.2a3.82 3.82 0 1 1-3.81 3.8 3.82 3.82 0 0 1 3.81-3.8Z" fill="#f0e233" class="fill-ae66d3"></path><path d="M50.34 21.24A3.32 3.32 0 1 1 47 24.55a3.31 3.31 0 0 1 3.34-3.31Z" fill="#33f03c" class="fill-fe4a13"></path><path d="M25.7 48a2.79 2.79 0 1 1-2.78 2.79A2.79 2.79 0 0 1 25.7 48ZM32 28.47a2.93 2.93 0 1 1-2.93 2.92A2.93 2.93 0 0 1 32 28.47Z" fill="#3355f0" class="fill-a3daf4"></path><circle cx="16.65" cy="6.92" r="2.48" transform="rotate(-80.78 16.65 6.912)" fill="#33f03c" class="fill-fe4a13"></circle><path d="M47.35 53.38a2.49 2.49 0 1 1-2.48 2.49 2.49 2.49 0 0 1 2.48-2.49Z" fill="#f0e233" class="fill-ae66d3"></path></g></svg>